<?xml version="1.0" encoding="UTF-8"?>
<svg id="Layer_1" xmlns="http://www.w3.org/2000/svg" version="1.1" viewBox="0 0 71.8 56.02">
  <!-- Generator: Adobe Illustrator 30.4.0, SVG Export Plug-In . SVG Version: 2.1.4 Build 226)  -->
  <defs>
    <style>
      .st0 {
        fill: #deb209;
      }
    </style>
  </defs>
  <path id="logoMark" class="st0" d="M69.9,16.96c-.53-1.45-2.13-2.2-3.57-1.67-1.03.37-1.74,1.31-1.83,2.4l-15.31,2.08s.03.05.04.08c0,.02,0,.04.01.06-.55-1.44-2.16-2.16-3.6-1.61-1.44.55-2.16,2.16-1.61,3.6.24.63.7,1.15,1.3,1.47,0,1.85-.45,9.28-7.06,18.31-1.51-1.09-3.4-1.52-5.23-1.18-1.61-14.88-6.07-24.44-7.37-26.96,2.2-3.51,1.13-8.14-2.38-10.34-3.51-2.2-8.14-1.13-10.34,2.38-2.2,3.51-1.13,8.14,2.38,10.34.33.21.68.39,1.03.54-1.63,14.23-6.68,22.58-9.6,26.33-1.56-.95-3.6-.46-4.55,1.1-.95,1.56-.46,3.6,1.1,4.55,1.56.95,3.6.46,4.55-1.1.53-.86.63-1.92.28-2.87-.1-.27-.24-.53-.42-.77,3.02-3.8,8.16-12.22,9.88-26.82,2.62.64,5.38-.21,7.2-2.21,1.53,3.1,5.52,12.31,6.99,26.19-3.49,1.37-5.2,5.32-3.83,8.8s5.32,5.2,8.8,3.83c3.49-1.37,5.2-5.32,3.83-8.8-.31-.79-.77-1.52-1.36-2.15,6.61-8.97,7.34-16.36,7.38-18.83,1.51.03,2.77-1.16,2.82-2.67l15.26-2.07c.56,1.44,2.18,2.15,3.61,1.59,1.43-.55,2.14-2.15,1.6-3.58h0Z"/>
</svg>