<svg version="1.1" xmlns="http://www.w3.org/2000/svg" width="1024" height="1024">

<path d="M0 0 C7.67008999 4.04215171 14.04997455 10.06198116 17.203125 18.23046875 C19.51865349 26.28576064 18.90844867 34.64437057 15.375 42.2265625 C12.11039087 48.0008399 9.10077725 51.03208868 2.984375 53.6484375 C-0.61804239 55.76480021 -1.68720868 56.73492762 -2.78076172 60.82617188 C-3.08612155 65.02190865 -3.10924221 69.1123253 -3 73.3125 C-2.99805637 74.77864686 -3.00061596 76.24480702 -3.0078125 77.7109375 C-3.01560902 81.28809506 -2.96197792 84.86124737 -2.875 88.4375 C-2.32900146 88.42178955 -1.78300293 88.4060791 -1.22045898 88.38989258 C24.37575345 87.75949641 51.37836628 90.39397876 75.11694336 100.64575195 C78.89923441 102.23333579 81.22871906 102.85775725 85.125 101.4375 C93.34557149 96.87955937 100.35751896 90.89790511 107.125 84.4375 C108.06279297 83.61185547 108.06279297 83.61185547 109.01953125 82.76953125 C119.20532756 73.45746013 124.12392929 60.68253448 127.91796875 47.73046875 C129.41762558 42.73437445 131.00389617 39.90790323 135.125 36.4375 C135.455 36.1075 135.785 35.7775 136.125 35.4375 C141.34355211 34.63386332 145.8671413 34.71669641 150.3125 37.75 C159.92541821 46.06439902 165.00401869 59.15580264 167.125 71.4375 C168.70863166 94.77695421 165.36795471 118.26774661 149.7109375 136.65234375 C149.18757813 137.24144531 148.66421875 137.83054688 148.125 138.4375 C147.26991451 139.52010824 146.41566745 140.60337957 145.5625 141.6875 C142.93470556 144.65219116 140.22699792 146.98475746 137.125 149.4375 C137.455 151.0875 137.785 152.7375 138.125 154.4375 C139.5790625 153.27734375 139.5790625 153.27734375 141.0625 152.09375 C169.65478674 129.71044454 202.23765756 122.2472281 238.265625 125.86328125 C242.94226074 126.47125401 247.5257269 127.4042089 252.125 128.4375 C253.24422852 128.6845166 254.36345703 128.9315332 255.51660156 129.18603516 C259.28902617 130.03356461 263.05161491 130.91520595 266.8125 131.8125 C268.0075415 132.09230713 269.20258301 132.37211426 270.43383789 132.66040039 C278.53175657 134.68445063 285.30995352 136.82846605 290.5625 143.5625 C293.04476907 148.12987509 293.82030955 152.29717582 293.125 157.4375 C291.07164365 164.21212991 287.71951908 169.45330188 283.625 175.1875 C283.00568604 176.06422363 282.38637207 176.94094727 281.74829102 177.84423828 C277.37526272 183.93670647 272.7415763 189.54673556 267.52734375 194.9296875 C265.03813883 197.46194169 265.03813883 197.46194169 262.640625 200.48046875 C248.58843324 216.99834012 227.23026337 227.71955485 206.125 231.4375 C193.27028293 232.21728982 180.48869098 232.27723897 168.125 228.4375 C170.57731531 240.80158492 173.04920444 253.16097617 175.625 265.5 C175.83012207 266.48637451 176.03524414 267.47274902 176.24658203 268.48901367 C177.27892108 273.44044754 178.32900203 278.38711085 179.41015625 283.328125 C180.71965545 289.351124 181.95222036 295.38641546 183.125 301.4375 C183.32544922 302.46617187 183.52589844 303.49484375 183.73242188 304.5546875 C189.67297086 336.10776733 192.10776355 372.23239904 173.91113281 400.31054688 C171.20159818 404.21889675 168.24235337 407.84827672 165.125 411.4375 C164.47917969 412.18386719 163.83335937 412.93023437 163.16796875 413.69921875 C155.57149686 421.8394381 145.57509028 427.69332748 136.125 433.4375 C136.99125 434.406875 137.8575 435.37625 138.75 436.375 C139.23726562 436.92027344 139.72453125 437.46554687 140.2265625 438.02734375 C146.50568148 442.69146299 158.35590178 440.89195985 165.65625 440.01171875 C185.83997209 436.30682382 196.63443337 425.31577753 207.88867188 409.19042969 C209.06010571 407.52951046 210.28652806 405.90777514 211.515625 404.2890625 C213.3524006 401.61905003 213.3524006 401.61905003 213.0234375 398.93359375 C211.99960588 396.08912241 210.91163631 393.29144727 209.75 390.5 C204.35994516 376.62646754 200.88358385 361.07049993 206.8671875 346.84375 C210.33186503 340.21567125 214.91427547 335.74111521 222.125 333.4375 C228.57306534 332.61869805 233.64529543 333.88256621 239.125 337.4375 C241.71310016 339.92719331 243.917274 342.61209997 246.125 345.4375 C246.785 346.0975 247.445 346.7575 248.125 347.4375 C248.6096875 346.54289062 249.094375 345.64828125 249.59375 344.7265625 C257.85027621 329.73039708 267.46400949 316.17640602 284.4453125 310.6875 C295.49692668 307.91496961 305.8320973 309.47262614 315.8984375 314.9453125 C329.0011386 323.61325323 335.76477134 335.65453222 339.68359375 350.5625 C343.7523862 377.06366142 335.42755036 404.9388536 319.9375 426.4375 C314.61802379 433.33844211 308.54661741 440.80663764 301 445.296875 C297.46247002 447.93079678 296.30407882 450.68952829 294.8125 454.6875 C279.84572605 491.43563486 250.39067927 519.80418822 214.00976562 535.34082031 C209.78931351 537.00297006 205.50576274 538.27478972 201.125 539.4375 C200.41778809 539.62924805 199.71057617 539.82099609 198.98193359 540.01855469 C188.53621989 542.79592294 178.93839785 544.01166272 168.125 543.4375 C168.25777344 544.69820312 168.39054687 545.95890625 168.52734375 547.2578125 C168.70604454 549.02600982 168.88441105 550.79424095 169.0625 552.5625 C169.14951172 553.37976563 169.23652344 554.19703125 169.32617188 555.0390625 C171.0908887 572.81695047 171.35330915 590.74062714 171.42016602 608.59277344 C171.4318573 610.76438828 171.4525673 612.93597084 171.48168945 615.10742188 C171.52430128 618.30878428 171.54050182 621.50932725 171.55078125 624.7109375 C171.56828934 625.6724472 171.58579742 626.63395691 171.60383606 627.62460327 C171.58103777 634.7113789 169.99657579 639.88121758 165.51953125 645.42578125 C156.41698337 653.04495096 146.52376825 652.87275026 135.14550781 652.82518005 C133.51897947 652.82935657 131.89245404 652.83483584 130.26593399 652.84149987 C125.81136517 652.85593118 121.35698174 652.85171701 116.90240288 652.84433305 C112.09251044 652.83959803 107.28265792 652.85211412 102.47277832 652.86235046 C93.0561416 652.87953653 83.63957161 652.88037896 74.22292328 652.87513756 C66.56922224 652.8710947 58.91554092 652.8725408 51.26184082 652.87788582 C50.17216641 652.87863424 49.08249199 652.87938266 47.95979714 652.88015376 C45.74608453 652.88168525 43.53237191 652.8832236 41.31865931 652.88476873 C20.56490423 652.89849278 -0.18881314 652.89305648 -20.94256735 652.88158352 C-39.92814077 652.87164864 -58.91361677 652.88459641 -77.89917517 652.90851771 C-97.39787767 652.93290035 -116.89653478 652.94251879 -136.39525223 652.93586498 C-147.34063806 652.93237125 -158.28594894 652.9346152 -169.23132324 652.95211601 C-178.54759363 652.96682741 -187.86373627 652.96748716 -197.18000412 652.9500451 C-201.93253702 652.9415245 -206.6848416 652.93941153 -211.43736267 652.95469666 C-215.78981889 652.96852179 -220.14185071 652.96380866 -224.49428225 652.94445742 C-226.06684004 652.94069046 -227.63943165 652.94363944 -229.21195936 652.95406907 C-240.26644661 653.02216036 -248.90326611 651.89335213 -257.3046875 644.21484375 C-263.03913551 637.72436154 -264.99036059 631.15932425 -265.04296875 622.671875 C-265.04720352 622.01018814 -265.05143829 621.34850128 -265.05580139 620.66676331 C-265.06572649 618.50694499 -265.06571064 616.34733724 -265.0625 614.1875 C-265.06159363 613.07754166 -265.06159363 613.07754166 -265.06066895 611.94515991 C-264.94379632 559.15080317 -253.36346935 503.77199247 -215.875 464.4375 C-215.070625 463.52097656 -215.070625 463.52097656 -214.25 462.5859375 C-203.41006392 450.71620749 -185.14450865 441.30208555 -169.1171875 440.2578125 C-167.03560666 440.25128717 -164.95399395 440.3335503 -162.875 440.4375 C-162.606875 439.839375 -162.33875 439.24125 -162.0625 438.625 C-160.89006533 436.46525192 -159.68130718 435.07959744 -157.875 433.4375 C-158.80699219 432.91542969 -159.73898437 432.39335937 -160.69921875 431.85546875 C-183.84550379 418.61199152 -200.70677548 400.32750214 -207.91015625 374.25 C-216.55695889 340.08287702 -206.89947456 304.07629587 -199.61227417 270.49179077 C-197.77345525 262.00985482 -196.01426423 253.51243978 -194.27481079 245.00964355 C-193.81996285 242.7864763 -193.36372424 240.56359918 -192.90698242 238.34082031 C-192.22874707 235.03989938 -191.55151496 231.73877403 -190.875 228.4375 C-192.30670532 228.75581787 -192.30670532 228.75581787 -193.76733398 229.08056641 C-201.54512571 230.75756333 -208.94523514 231.94073797 -216.9375 231.8125 C-217.87577637 231.80307373 -218.81405273 231.79364746 -219.78076172 231.78393555 C-232.03580713 231.51953668 -242.79175988 228.73686345 -253.875 223.4375 C-255.22851562 222.79167969 -255.22851562 222.79167969 -256.609375 222.1328125 C-270.82421501 214.86105908 -283.81806617 203.76535437 -293.875 191.4375 C-294.27976562 190.94507813 -294.68453125 190.45265625 -295.1015625 189.9453125 C-302.00764549 181.5045444 -308.26025987 172.79128685 -313.875 163.4375 C-314.27847656 162.7671875 -314.68195313 162.096875 -315.09765625 161.40625 C-316.83619466 157.00311755 -316.37213742 152.06709219 -315.875 147.4375 C-313.164241 141.70320211 -309.0504377 137.67569225 -303.16015625 135.37890625 C-299.75332422 134.29663699 -296.331075 133.35028658 -292.875 132.4375 C-291.65425781 132.0971875 -290.43351562 131.756875 -289.17578125 131.40625 C-273.48107499 127.21676319 -258.20509222 125.17893833 -241.9375 125.125 C-240.74165283 125.11952148 -239.54580566 125.11404297 -238.3137207 125.10839844 C-211.25492851 125.32557272 -186.79243558 134.05345708 -165.75 150.95703125 C-164.18295205 152.19434619 -162.53630828 153.32996115 -160.875 154.4375 C-159.97843614 152.15385847 -159.97843614 152.15385847 -159.875 149.4375 C-161.68845777 147.23053049 -161.68845777 147.23053049 -164.3125 145.3125 C-179.33265011 132.57893699 -188.30967645 112.92006365 -190.16162109 93.41943359 C-191.31837482 74.57629425 -189.06948131 56.65745896 -176.875 41.5625 C-172.87998814 37.21439366 -169.86446558 35.28304609 -163.875 34.9375 C-160.2717279 35.07115253 -159.07456186 35.30301266 -156 37.375 C-152.00283679 43.13561756 -149.93590144 49.10456168 -148 55.8125 C-144.59525171 67.11784182 -138.64303405 75.64844549 -130.875 84.4375 C-130.34519531 85.06269531 -129.81539062 85.68789062 -129.26953125 86.33203125 C-125.44739418 90.52753904 -120.92180723 93.64126243 -116.25 96.8125 C-115.60401855 97.25408447 -114.95803711 97.69566895 -114.29248047 98.15063477 C-109.47054301 101.36618761 -109.47054301 101.36618761 -103.875 102.4375 C-101.4397084 101.65890917 -99.21257417 100.8157873 -96.875 99.8125 C-72.38045143 90.05972408 -46.02003046 87.71821657 -19.875 88.4375 C-19.77009681 84.14910363 -19.73181719 79.86658862 -19.75292969 75.57739258 C-19.75099306 74.12152928 -19.73143821 72.6655716 -19.69335938 71.21020508 C-19.26715221 62.47565156 -19.26715221 62.47565156 -23.05810547 54.99584961 C-25.59115376 53.24730223 -28.15123853 51.8605768 -30.875 50.4375 C-36.74733142 45.19669025 -40.16670537 38.49674737 -41.2578125 30.703125 C-41.62699874 21.99032983 -39.13879957 14.86268643 -33.625 8.125 C-24.86211081 -1.2044553 -12.29904092 -5.03142583 0 0 Z " fill="#051E36" transform="translate(523.875,62.5625)" data-index="1" style="opacity: 1;"></path>
<path d="M0 0 C1.04003174 0.44811035 1.04003174 0.44811035 2.10107422 0.90527344 C16.01111199 6.96649317 28.09218573 14.30721433 39 25 C39.57492187 25.55042969 40.14984375 26.10085938 40.7421875 26.66796875 C47.85726227 34.13326741 51.5716659 43.38712186 51.625 53.625 C51.34812075 65.11612691 47.67703896 73.47655636 40 82 C39.30261719 82.80179687 38.60523438 83.60359375 37.88671875 84.4296875 C7.40370754 117.32060044 -51.7579808 126.00968194 -93.96191406 127.87109375 C-156.99342844 130.05442032 -238.02119856 129.71610667 -287.3125 84.1875 C-296.79646728 74.28774293 -300.52530725 63.22261621 -300.3125 49.72265625 C-299.19092993 36.36195274 -289.80258172 25.42118809 -280 17 C-275.49711788 13.68614299 -270.84387254 10.78464791 -266 8 C-264.87851562 7.34386719 -263.75703125 6.68773437 -262.6015625 6.01171875 C-190.80179586 -33.79854543 -74.60376247 -32.30935524 0 0 Z " fill="#FDCFC0" transform="translate(637,377)" data-index="2" style="opacity: 1;"></path>
<path d="M0 0 C0.91422729 0.27589966 0.91422729 0.27589966 1.84692383 0.55737305 C4.56357429 1.37510176 7.28147227 2.18853429 10 3 C10.78810059 3.23541504 11.57620117 3.47083008 12.38818359 3.71337891 C24.11862853 7.17079929 35.93574129 9.93064116 47.9375 12.25 C49.20360107 12.49596924 50.46970215 12.74193848 51.77416992 12.99536133 C59.79798839 14.50847196 67.82652251 15.8014808 75.93685913 16.75466919 C77.33051452 16.9203906 78.72328995 17.09366067 80.11514282 17.27389526 C96.9268094 19.42261877 113.78831404 19.34150385 130.70507812 19.31567383 C133.96010286 19.31107782 137.21475074 19.31784491 140.46972656 19.33618164 C158.03922357 19.43409756 175.47990573 19.14956063 192.9921875 17.6328125 C193.70270893 17.57204844 194.41323036 17.51128437 195.14528275 17.44867897 C207.96391701 16.32460735 220.51651151 14.24852766 233.10644531 11.60107422 C235.78203965 11.04527661 238.46131929 10.53170039 241.1484375 10.03515625 C252.50898488 7.88106646 263.26588596 4.47273066 274.14672852 0.57910156 C276 0 276 0 278 0 C294.9595214 30.88905386 298.26484048 68.01484168 300.80493164 102.62207031 C301.06047326 106.09743631 301.32364913 109.57216083 301.58789062 113.046875 C302.97842101 131.55079623 304.14911404 150.06435544 304.3125 168.625 C304.35600586 170.37683594 304.35600586 170.37683594 304.40039062 172.1640625 C304.40876953 173.2778125 304.41714844 174.3915625 304.42578125 175.5390625 C304.44765503 177.01173584 304.44765503 177.01173584 304.4699707 178.51416016 C304 181 304 181 302.45151138 182.63281727 C299.09697422 184.50360821 296.04502432 184.40566954 292.30584717 184.36076355 C291.52655452 184.36332682 290.74726187 184.3658901 289.9443543 184.36853105 C287.33085701 184.37347584 284.71793633 184.35696479 282.10449219 184.34057617 C280.23200494 184.33973005 278.3595167 184.34020475 276.48703003 184.34190369 C271.40056532 184.34276564 266.31431216 184.32510743 261.22789669 184.30418181 C255.91343694 184.28544841 250.59897253 184.28366721 245.28448486 184.28010559 C235.21935331 184.27077532 225.15431933 184.24614822 215.08923078 184.21605712 C203.6310868 184.1825437 192.17293821 184.16603479 180.71475744 184.15097082 C157.1431175 184.11959955 133.57156421 184.06681993 110 184 C112.46533163 181.50233877 114.85122799 179.25137929 117.72265625 177.23046875 C118.42712891 176.73353516 119.13160156 176.23660156 119.85742188 175.72460938 C120.58509766 175.21736328 121.31277344 174.71011719 122.0625 174.1875 C123.1134082 173.4440332 123.1134082 173.4440332 124.18554688 172.68554688 C125.61495703 171.68224815 127.05398425 170.69249902 128.50270081 169.71728516 C130.15199939 168.58313351 131.77266922 167.40604417 133.35960388 166.18615723 C140.97787244 160.67894206 147.01169797 160.04251898 156.25 160.23828125 C157.59798453 160.23905619 158.94597559 160.23614765 160.29394531 160.2297821 C163.81487435 160.22027073 167.33430677 160.24857679 170.85498047 160.28894043 C176.48648096 160.35079335 182.11759245 160.3700401 187.74938965 160.35912132 C189.694053 160.36316492 191.63860138 160.39423416 193.58300781 160.42610168 C204.77229563 160.45280118 214.81850232 158.03796263 223 150 C231.91252195 139.62906537 232.46948684 127.57239495 232.43359375 114.47265625 C232.43816866 112.99254622 232.44347807 111.51243831 232.44947815 110.03233337 C232.45835518 106.94700429 232.45604839 103.86193479 232.44604492 100.77661133 C232.43455942 96.85538104 232.4547872 92.93505195 232.48396206 89.01393986 C232.50245416 85.96209685 232.50200604 82.91046471 232.49632454 79.85857964 C232.49617292 78.41432875 232.50208267 76.97006207 232.51461601 75.52586555 C232.60524254 63.37555179 231.08436407 52.50681016 222.98046875 42.96875 C214.67295052 34.71038869 205.32550979 31.68334233 193.79368591 31.59341431 C192.05406334 31.60252335 192.05406334 31.60252335 190.27929688 31.61181641 C189.03422867 31.60655945 187.78916046 31.60130249 186.50636292 31.59588623 C183.11570842 31.58499904 179.72560832 31.58747428 176.33498573 31.59702349 C172.77177866 31.60466604 169.20859384 31.5975618 165.64538574 31.59286499 C159.66377556 31.58742073 153.68227682 31.59456397 147.70068359 31.60888672 C140.80404398 31.62521074 133.90767052 31.61992129 127.01103735 31.6034075 C121.06934009 31.58975456 115.12772254 31.5878915 109.18601465 31.59572351 C105.64621785 31.60037919 102.10654578 31.60108336 98.5667572 31.59111404 C94.61796884 31.58076788 90.66947402 31.59514381 86.72070312 31.61181641 C85.56095474 31.60574371 84.40120636 31.59967102 83.20631409 31.59341431 C71.48860461 31.68479191 62.76780943 34.91297614 54.01953125 42.78125 C44.7990933 52.37522381 44.39180321 63.86323081 44.46875 76.4375 C44.46604787 78.00968667 44.4621595 79.58187171 44.45715332 81.15405273 C44.45129204 84.43196695 44.45971103 87.70944198 44.47851562 90.98730469 C44.50130367 95.15975416 44.48816225 99.33117399 44.46422577 103.50358582 C44.44967566 106.74499068 44.45441556 109.98615699 44.46473694 113.22756958 C44.46737889 114.76474128 44.46422511 116.30193563 44.45481873 117.83908081 C44.39952616 129.41010423 45.61209373 139.83306485 53.1640625 149.1484375 C60.51585466 156.56279811 67.78722271 159.54103182 78 161 C78.495 172.385 78.495 172.385 79 184 C65.47462808 184.04511465 51.94930582 184.08183747 38.42387581 184.10362434 C32.14404641 184.11407887 25.86427099 184.12826845 19.58447266 184.15087891 C13.52853741 184.17254784 7.47265421 184.18455604 1.4166832 184.18975449 C-0.89827418 184.19346097 -3.21322858 184.20069836 -5.52816391 184.21146011 C-8.76086419 184.22589595 -11.9933471 184.22798127 -15.22607422 184.22705078 C-16.19136047 184.23424133 -17.15664673 184.24143188 -18.15118408 184.24884033 C-19.46791611 184.24471634 -19.46791611 184.24471634 -20.81124878 184.24050903 C-21.57633696 184.24235262 -22.34142513 184.24419621 -23.1296978 184.24609566 C-25 184 -25 184 -27 182 C-27.25878906 179.66967773 -27.25878906 179.66967773 -27.265625 176.68359375 C-27.26965332 175.54744629 -27.27368164 174.41129883 -27.27783203 173.24072266 C-27.26864746 171.98565918 -27.25946289 170.7305957 -27.25 169.4375 C-27.24468262 168.12571777 -27.23936523 166.81393555 -27.23388672 165.46240234 C-26.19789314 26.19789314 -26.19789314 26.19789314 0 0 Z " fill="#688BA3" transform="translate(374,513)" data-index="3" style="opacity: 1;"></path>
<path d="M0 0 C1.01660706 0.00082581 2.03321411 0.00165161 3.08062744 0.00250244 C22.64911956 0.0389257 42.97710988 0.19545974 62 5.3125 C62.33 5.9725 62.66 6.6325 63 7.3125 C62.49210938 7.71339844 61.98421875 8.11429688 61.4609375 8.52734375 C52.26506514 16.12168777 45.93866337 25.55322094 44.77246094 37.67822266 C44.1540605 47.99850919 44.80101994 57.8399068 47 67.9375 C49.83841584 81.03555389 49.43645673 89.07555339 44.21582031 101.48095703 C34.48164678 124.65242857 33.90952686 146.03597257 40 170.3125 C39.1874324 170.30583817 38.37486481 170.29917633 37.53767395 170.29231262 C29.73245293 170.23122092 21.92735397 170.18604225 14.12195301 170.15706348 C10.11285196 170.1416627 6.10395454 170.120919 2.0949707 170.08618164 C-22.98509711 169.87484616 -47.1785597 171.35174162 -72 175.3125 C-69.88708959 173.18618847 -67.76560484 171.09613524 -65.5625 169.0625 C-58.44447955 161.42364878 -55.60526685 153.39309507 -55.6875 143 C-55.69313965 142.25306885 -55.6987793 141.5061377 -55.70458984 140.73657227 C-55.93959658 130.00421 -58.990232 122.56656751 -66.44140625 114.8125 C-72.44666622 109.31449632 -79.20707533 107.64071303 -87.1953125 107.90625 C-94.87787217 109.01904416 -100.7308907 113.09210943 -105.53125 119.05859375 C-111.58944885 128.35535103 -113.18629934 138.50102045 -111.5390625 149.34765625 C-109.58048377 158.27647107 -106.36355768 166.27523326 -98.75 171.75 C-94.11165227 174.53933006 -89.24204233 176.06491581 -84 177.3125 C-84 177.6425 -84 177.9725 -84 178.3125 C-85.87365234 178.7146875 -85.87365234 178.7146875 -87.78515625 179.125 C-117.49741756 185.7184188 -157.45854732 197.23533358 -176.25 223.4375 C-176.8275 224.38625 -177.405 225.335 -178 226.3125 C-178.66 225.9825 -179.32 225.6525 -180 225.3125 C-175.49634785 196.36346974 -170.04035573 167.73481108 -163.45632935 139.19338608 C-162.94343035 136.96328533 -162.43589858 134.73202411 -161.9296875 132.50039673 C-157.14973965 111.48579432 -152.08685075 90.35105647 -141.625 71.3125 C-141.16222656 70.45277588 -140.69945312 69.59305176 -140.22265625 68.70727539 C-133.35864608 56.21248576 -124.98344932 45.45149881 -115 35.3125 C-114.17242187 34.46042969 -113.34484375 33.60835937 -112.4921875 32.73046875 C-96.51929745 17.2216229 -76.43703842 8.99545855 -55 4.3125 C-54.10410156 4.10882813 -53.20820313 3.90515625 -52.28515625 3.6953125 C-35.15103354 0.17645633 -17.41917263 -0.06026408 0 0 Z " fill="#FAF6EF" transform="translate(511,168.6875)" data-index="4" style="opacity: 1;"></path>
<path d="M0 0 C0.6506543 -0.00175232 1.30130859 -0.00350464 1.97167969 -0.00531006 C4.13910539 -0.00973601 6.3064503 -0.00678362 8.47387695 -0.00341797 C9.98590612 -0.00409185 11.49793519 -0.00506259 13.00996399 -0.00631714 C16.19366477 -0.00779596 19.37733761 -0.00563757 22.56103516 -0.00097656 C26.60310755 0.00465783 30.64511263 0.00148347 34.68718243 -0.00454903 C37.81971216 -0.00820402 40.9522266 -0.0069926 44.08475685 -0.00442123 C45.57199932 -0.00376221 47.05924325 -0.00454377 48.54648399 -0.00690079 C89.13668429 -0.05701103 89.13668429 -0.05701103 103.5871582 13.37939453 C112.64708836 23.28665628 116.4348161 34.60134168 116.0559082 47.92626953 C115.20239305 57.64685883 112.11141033 66.25306808 104.7824707 72.94970703 C101.33237029 75.64469112 97.99169097 77.81157179 93.7746582 79.12939453 C93.7746582 79.78939453 93.7746582 80.44939453 93.7746582 81.12939453 C94.5790332 81.17064453 95.3834082 81.21189453 96.2121582 81.25439453 C104.91854124 83.3928044 111.69912219 89.95244881 116.7746582 97.12939453 C118.42666288 100.3808835 119.70915674 103.64394059 120.7746582 107.12939453 C121.06276367 108.04398438 121.06276367 108.04398438 121.35668945 108.97705078 C123.8147191 121.63475486 120.93932141 133.46011033 114.6262207 144.45361328 C105.97117242 156.96143623 92.44141627 161.93604401 78.02807617 164.64575195 C74.69736252 165.14088506 71.4795842 165.33839198 68.11450195 165.44580078 C67.46767456 165.46671783 66.82084717 165.48763489 66.15441895 165.50918579 C64.00712385 165.57584191 61.85972727 165.63477692 59.7121582 165.69189453 C58.59939011 165.72266586 58.59939011 165.72266586 57.46414185 165.75405884 C44.39838337 166.10616799 31.33102876 166.26105178 18.26077271 166.30563354 C16.2281047 166.31314182 14.19544594 166.32382382 12.16281128 166.337677 C9.30287234 166.35543042 6.44323928 166.35970363 3.58325195 166.35986328 C2.72026489 166.36700348 1.85727783 166.37414368 0.96813965 166.38150024 C-4.99614989 166.35858643 -4.99614989 166.35858643 -7.2253418 164.12939453 C-7.47423077 161.34046078 -7.47423077 161.34046078 -7.47257996 157.70750427 C-7.47499437 157.04088195 -7.47740879 156.37425964 -7.47989637 155.68743664 C-7.48555311 153.44330026 -7.47685561 151.19944606 -7.46826172 148.95532227 C-7.4693341 147.35075808 -7.47127213 145.74619428 -7.47401428 144.14163208 C-7.47887236 139.77608207 -7.47119528 135.41063386 -7.46106124 131.04509616 C-7.45229772 126.48514843 -7.45403784 121.92520406 -7.454422 117.36524963 C-7.45348467 109.70759368 -7.44479095 102.04997729 -7.43115234 94.39233398 C-7.41542049 85.52637691 -7.41015439 76.66046317 -7.4108879 67.79449314 C-7.41149728 59.28034323 -7.40640044 50.7662075 -7.39809608 42.25206184 C-7.39455651 38.62168327 -7.39273188 34.99130971 -7.39220238 31.36092949 C-7.39120118 27.09038698 -7.38512298 22.81988116 -7.37503624 18.54935074 C-7.37210421 16.97752799 -7.37088728 15.40570103 -7.37146378 13.83387566 C-7.37195105 11.69731123 -7.36633279 9.56085111 -7.35905457 7.42430115 C-7.3565408 5.62655322 -7.3565408 5.62655322 -7.35397625 3.79248714 C-7.11302973 -1.19577901 -4.39059509 0.00295694 0 0 Z " fill="#041E36" transform="translate(516.225341796875,746.87060546875)" data-index="5"></path>
<path d="M0 0 C1.12664063 0.38800781 2.25328125 0.77601563 3.4140625 1.17578125 C19.36211918 7.13531822 32.55877555 15.41559727 45 27 C46.02673828 27.92232422 46.02673828 27.92232422 47.07421875 28.86328125 C60.99652427 41.94181067 70.5599501 59.63531631 78 77 C78.50144531 78.13695312 79.00289062 79.27390625 79.51953125 80.4453125 C84.31771796 92.16858662 86.85368282 104.45479648 89.59770203 116.78657532 C90.68647871 121.66178819 91.83366784 126.52064087 93.01171875 131.375 C98.86273942 155.54097791 103.69752628 179.78648669 107.4375 204.375 C107.6137793 205.52282959 107.79005859 206.67065918 107.97167969 207.85327148 C108.12411133 208.89942627 108.27654297 209.94558105 108.43359375 211.0234375 C108.56822021 211.94044434 108.70284668 212.85745117 108.84155273 213.80224609 C109 216 109 216 108 218 C107.47792969 217.38253906 106.95585938 216.76507813 106.41796875 216.12890625 C84.51344987 190.92528295 52.98708586 179.2269131 21.22265625 171.859375 C18.54099111 171.1442643 16.39445902 170.3682623 14 169 C14.7734375 168.85304688 15.546875 168.70609375 16.34375 168.5546875 C25.67701608 166.54480099 31.62974341 163.57939715 37.3125 155.8125 C43.39077181 145.90839499 44.30537077 134.67861441 42.375 123.375 C40.22153385 115.07737867 35.21984389 107.6544951 28 103 C22.04386771 99.66710044 15.70879644 99.02027312 9 100 C0.17129465 102.85821396 -5.09379308 108.11040277 -9.3125 116.1875 C-13.85514783 125.5986396 -13.41529176 138.70015549 -10.4375 148.5625 C-7.48535312 156.11036488 -2.66575087 162.35417364 4 167 C-2.35358214 166.5578093 -8.63788825 165.94741636 -14.9375 165 C-21.60982389 164.00324258 -28.26919752 163.42486793 -35 163 C-34.505 162.01 -34.505 162.01 -34 161 C-34.38864803 159.08866377 -34.86040475 157.19384133 -35.375 155.3125 C-41.54271839 132.63028329 -37.6002997 111.74131212 -28.6875 90.5625 C-24.39768648 80.23364763 -24.08970017 73.0558011 -26.45043945 62.16259766 C-30.25459921 44.59687732 -32.29234061 26.29532046 -22.35546875 10.36328125 C-20.68905498 8.08747915 -18.93379713 6.05074383 -17 4 C-16.18208984 3.03513672 -16.18208984 3.03513672 -15.34765625 2.05078125 C-10.3413763 -3.19108835 -6.47764234 -2.2663065 0 0 Z " fill="#688BA3" transform="translate(584,177)" data-index="6" style="opacity: 1;"></path>
<path d="M0 0 C1.03025299 -0.00708481 2.06050598 -0.01416962 3.12197876 -0.02146912 C4.24157486 -0.0189917 5.36117096 -0.01651428 6.51469421 -0.01396179 C8.29604767 -0.02162819 8.29604767 -0.02162819 10.11338806 -0.02944946 C13.36357328 -0.04095612 16.61360009 -0.04342071 19.86380029 -0.04088616 C22.58225566 -0.03981439 25.30068768 -0.04470529 28.01913804 -0.04949158 C34.4367827 -0.06057911 40.85436883 -0.06102899 47.27201843 -0.05497742 C53.87888783 -0.04894285 60.48554399 -0.06123707 67.09237701 -0.08254749 C72.77579675 -0.10020118 78.45914886 -0.10615877 84.14259499 -0.10290974 C87.53208635 -0.10110211 90.92142572 -0.10368039 94.31089211 -0.11762428 C98.09513815 -0.12998226 101.87889332 -0.12319977 105.66313171 -0.11161804 C107.33341682 -0.12308365 107.33341682 -0.12308365 109.03744507 -0.13478088 C116.61053184 -0.08364065 122.60848754 0.57999298 128.59550476 5.63569641 C132.65331802 10.50507232 134.15801384 13.63525622 134.1870575 20.05122375 C134.19392075 20.71370621 134.200784 21.37618866 134.20785522 22.05874634 C134.22608396 24.23826326 134.22229105 26.41705746 134.21659851 28.59663391 C134.22116289 30.11971774 134.22646923 31.6427995 134.23248291 33.1658783 C134.24140677 36.35512161 134.23900009 39.54411444 134.22904968 42.73335266 C134.21757267 46.80769225 134.23775477 50.88116348 134.26696682 54.95538902 C134.28537203 58.10054461 134.28502764 61.24549388 134.2793293 64.39068985 C134.27917655 65.89210349 134.28518266 67.39353152 134.29762077 68.89489365 C134.40119831 83.44928793 134.40119831 83.44928793 129.78300476 89.26069641 C124.69774694 94.08517178 120.1866086 95.50600619 113.2519989 95.53193665 C111.95037308 95.54212326 110.64874725 95.55230988 109.30767822 95.56280518 C108.61703341 95.56374617 107.92638859 95.56468716 107.21481514 95.56565666 C105.04086568 95.56933636 102.86736591 95.58610575 100.69351196 95.60641479 C94.51550167 95.66167617 88.3374263 95.69249456 82.15922546 95.71699524 C78.37318359 95.73291067 74.58746303 95.76316811 70.80158806 95.80175972 C69.36359008 95.81337169 67.92553456 95.81933974 66.4874897 95.81944084 C64.47274936 95.81963388 62.45804023 95.83946598 60.44340515 95.86006165 C59.29932693 95.86513229 58.15524872 95.87020294 56.97650146 95.87542725 C51.65056498 96.51795777 47.64953936 99.17465676 43.42753601 102.33491516 C42.64515564 102.91684631 41.86277527 103.49877747 41.0566864 104.0983429 C40.24449646 104.70879456 39.43230652 105.31924622 38.59550476 105.94819641 C37.75559998 106.57089417 36.91569519 107.19359192 36.05033875 107.8351593 C32.42250565 110.52587503 28.80825844 113.23077395 25.23612976 115.99507141 C24.28222351 116.72210266 23.32831726 117.44913391 22.34550476 118.19819641 C21.14087585 119.13985657 21.14087585 119.13985657 19.91191101 120.10054016 C17.78300476 121.26069641 17.78300476 121.26069641 15.64994812 120.83320618 C15.03385681 120.64427795 14.4177655 120.45534973 13.78300476 120.26069641 C13.75327576 119.27673889 13.75327576 119.27673889 13.72294617 118.27290344 C13.62787969 115.31008572 13.51812724 112.34799109 13.40800476 109.38569641 C13.37706726 108.35315735 13.34612976 107.32061829 13.31425476 106.25679016 C13.25624695 104.77759094 13.25624695 104.77759094 13.19706726 103.26850891 C13.16564636 102.35730286 13.13422546 101.4460968 13.10185242 100.50727844 C12.98417965 98.06138455 12.98417965 98.06138455 10.78300476 96.26069641 C8.05922012 96.08203957 5.38360709 95.99084248 2.65800476 95.94819641 C-5.85890465 95.63166862 -10.64890365 94.01658229 -16.59199524 87.76069641 C-19.61440021 83.11084261 -20.46983733 79.38710783 -20.50752258 73.85322571 C-20.52028229 72.57807602 -20.53304199 71.30292633 -20.54618835 69.98913574 C-20.54924652 68.6043971 -20.55147401 67.21965641 -20.55293274 65.83491516 C-20.55936615 64.40390898 -20.56609491 62.9729041 -20.57310486 61.54190063 C-20.58506121 58.54522149 -20.58878746 55.54865748 -20.58760071 52.55195618 C-20.58739778 48.72883996 -20.61467888 44.9064693 -20.64914513 41.08352947 C-20.67148353 38.12793651 -20.67543612 35.17252089 -20.67438126 32.21685219 C-20.67672759 30.80835722 -20.68549623 29.39985663 -20.70104599 27.99144554 C-20.85887053 12.21813976 -20.85887053 12.21813976 -14.80497742 5.75268555 C-10.28911899 1.70601132 -5.99815082 0.01380359 0 0 Z " fill="#F9F6EF" transform="translate(455.2169952392578,561.7393035888672)" data-index="7" style="opacity: 1;"></path>
<path d="M0 0 C2.0699881 -0.00971028 4.13898526 -0.04072275 6.20874023 -0.07226562 C7.50618164 -0.07742188 8.80362305 -0.08257813 10.14038086 -0.08789062 C11.9375354 -0.10190918 11.9375354 -0.10190918 13.77099609 -0.11621094 C14.71918213 0.00141602 15.66736816 0.11904297 16.64428711 0.24023438 C18.88491459 3.60117559 18.91004871 4.78421996 18.96313477 8.72143555 C18.98300446 9.84237106 19.00287415 10.96330658 19.02334595 12.11820984 C19.03489716 13.32765762 19.04644836 14.53710541 19.05834961 15.78320312 C19.07771576 17.0219368 19.09708191 18.26067047 19.11703491 19.53694153 C19.16672118 22.82648612 19.20797993 26.11599563 19.24517822 29.40570068 C19.28522023 32.76405962 19.33631162 36.12224843 19.38647461 39.48046875 C19.48260864 46.06694795 19.56763559 52.6535012 19.64428711 59.24023438 C20.17538086 58.69028809 20.70647461 58.1403418 21.25366211 57.57373047 C21.96006836 56.85266113 22.66647461 56.1315918 23.39428711 55.38867188 C24.09038086 54.67372559 24.78647461 53.9587793 25.50366211 53.22216797 C33.92225881 45.42766888 45.34208489 44.66633861 56.25366211 44.93164062 C69.52616223 45.63004074 81.89315537 51.35577238 90.96069336 61.11914062 C104.31224904 77.9402421 108.73289573 97.22519337 106.40991211 118.37402344 C104.01733943 133.98083801 97.33643899 147.24490883 85.11303711 157.45898438 C72.94256814 166.24020882 58.52726774 169.75178709 43.64428711 168.24023438 C33.50200671 166.07165468 26.76246774 162.77713151 19.64428711 155.24023438 C19.51151367 155.95050781 19.37874023 156.66078125 19.24194336 157.39257812 C19.0653418 158.31167969 18.88874023 159.23078125 18.70678711 160.17773438 C18.53276367 161.09425781 18.35874023 162.01078125 18.17944336 162.95507812 C17.64428711 165.24023438 17.64428711 165.24023438 16.64428711 166.24023438 C12.00413386 166.49438987 7.35307405 166.42546235 2.70678711 166.42773438 C1.39258789 166.43998047 0.07838867 166.45222656 -1.27563477 166.46484375 C-2.52795898 166.46677734 -3.7802832 166.46871094 -5.07055664 166.47070312 C-6.80486938 166.47686646 -6.80486938 166.47686646 -8.57421875 166.4831543 C-11.35571289 166.24023438 -11.35571289 166.24023438 -13.35571289 164.24023438 C-13.60460186 161.45130062 -13.60460186 161.45130062 -13.60295105 157.81834412 C-13.60536547 157.1517218 -13.60777988 156.48509948 -13.61026746 155.79827648 C-13.6159242 153.55414011 -13.6072267 151.3102859 -13.59863281 149.06616211 C-13.5997052 147.46159793 -13.60164323 145.85703412 -13.60438538 144.25247192 C-13.60924345 139.88692191 -13.60156637 135.5214737 -13.59143233 131.155936 C-13.58266881 126.59598828 -13.58440894 122.03604391 -13.58479309 117.47608948 C-13.58385576 109.81843353 -13.57516204 102.16081714 -13.56152344 94.50317383 C-13.54579159 85.63721675 -13.54052549 76.77130301 -13.54125899 67.90533298 C-13.54186837 59.39118307 -13.53677153 50.87704734 -13.52846718 42.36290169 C-13.5249276 38.73252311 -13.52310297 35.10214955 -13.52257347 31.47176933 C-13.52157228 27.20122682 -13.51549407 22.930721 -13.50540733 18.66019058 C-13.5024753 17.08836784 -13.50125838 15.51654087 -13.50183487 13.9447155 C-13.50232214 11.80815107 -13.49670389 9.67169095 -13.48942566 7.53514099 C-13.48691189 5.73739306 -13.48691189 5.73739306 -13.48434734 3.90332699 C-13.18092327 -2.37839921 -4.88198263 0.01390713 0 0 Z " fill="#051E36" transform="translate(383.355712890625,745.759765625)" data-index="8"></path>
<path d="M0 0 C11.88236979 10.05137862 19.39598243 23.65836072 21.06958008 39.22192383 C21.22223246 42.30070507 21.26867724 45.35503783 21.25 48.4375 C21.24500488 49.52812744 21.24000977 50.61875488 21.23486328 51.74243164 C20.89336928 67.68078102 15.58409255 81.53484086 4.72265625 93.375 C-6.86011818 104.38436976 -22.86806727 111.33466869 -38.875 111.625 C-57.77472426 110.90875128 -76.92804295 105.08332319 -90.15234375 90.875 C-102.2020811 75.79599907 -106.16104549 58.30714248 -104.25 39.25 C-101.8531383 23.00584853 -93.4482954 8.74289349 -80.6875 -1.5 C-56.40319871 -18.82402807 -23.68887896 -17.85666256 0 0 Z " fill="#051F36" transform="translate(756.25,803.75)" data-index="9"></path>
<path d="M0 0 C3.04101562 -0.38818359 3.04101562 -0.38818359 6.90625 -0.3984375 C7.58675415 -0.40130768 8.2672583 -0.40417786 8.96838379 -0.40713501 C10.40747916 -0.40917695 11.84660221 -0.40363786 13.28564453 -0.39111328 C15.4918406 -0.37505937 17.69620484 -0.39095531 19.90234375 -0.41015625 C21.29948322 -0.40817384 22.69662155 -0.4043302 24.09375 -0.3984375 C25.36927734 -0.39505371 26.64480469 -0.39166992 27.95898438 -0.38818359 C28.96251953 -0.26008301 29.96605469 -0.13198242 31 0 C33.24163279 3.36244918 33.24797026 4.4436574 33.24050903 8.37199402 C33.24325836 9.48678635 33.24600769 10.60157867 33.24884033 11.75015259 C33.24164978 12.97366425 33.23445923 14.1971759 33.22705078 15.45776367 C33.22734283 16.74567307 33.22763489 18.03358246 33.22793579 19.36051941 C33.22851027 22.8933426 33.21674071 26.42603034 33.20278788 29.95882201 C33.19029627 33.65038223 33.18911126 37.34194546 33.18673706 41.03352356 C33.18051767 48.02456559 33.16410066 55.01554516 33.14403808 62.00655967 C33.12169335 69.96535657 33.11068924 77.92415644 33.10064721 85.88297689 C33.07973482 102.2553545 33.04454994 118.62766929 33 135 C34.31211708 134.99666908 34.31211708 134.99666908 35.65074158 134.99327087 C43.87675346 134.97327022 52.10275723 134.95802702 60.3287878 134.94818783 C64.55831371 134.94295944 68.7878196 134.9358626 73.01733398 134.92456055 C77.09568543 134.91373009 81.17401757 134.90772283 85.25238228 134.90512276 C86.81177639 134.90326879 88.3711694 134.89964873 89.93055534 134.89426994 C92.10729162 134.88705738 94.28394714 134.88600915 96.46069336 134.88647461 C97.70201523 134.884254 98.9433371 134.88203339 100.22227478 134.87974548 C103 135 103 135 104 136 C104.25380234 140.47331958 104.18522721 144.9578346 104.1875 149.4375 C104.19974609 150.70400391 104.21199219 151.97050781 104.22460938 153.27539062 C104.22654297 154.48259766 104.22847656 155.68980469 104.23046875 156.93359375 C104.23457764 158.04790771 104.23868652 159.16222168 104.24291992 160.31030273 C104 163 104 163 102 165 C100.16093254 165.24609566 100.16093254 165.24609566 97.88717651 165.24050903 C96.59568695 165.24463303 96.59568695 165.24463303 95.27810669 165.24884033 C94.33152191 165.24164978 93.38493713 165.23445923 92.40966797 165.22705078 C90.91693359 165.22748886 90.91693359 165.22748886 89.39404297 165.22793579 C86.09333684 165.2265386 82.79285437 165.21095904 79.4921875 165.1953125 C77.208182 165.19158376 74.9241749 165.18873613 72.64016724 165.18673706 C66.6198487 165.1790897 60.59962621 165.15943174 54.5793457 165.1373291 C48.4396291 165.1168944 42.29989703 165.10774043 36.16015625 165.09765625 C24.10672857 165.07618689 12.05337226 165.04203767 0 165 C-2.17300806 161.47526869 -2.2512979 158.63871679 -2.25396729 154.5408783 C-2.25708727 153.89437602 -2.26020725 153.24787375 -2.26342177 152.58178049 C-2.27139278 150.41762718 -2.2650818 148.25375496 -2.25878906 146.08959961 C-2.2614993 144.53724503 -2.26506042 142.98489174 -2.26940918 141.43254089 C-2.2785308 137.21780267 -2.27499007 133.0031623 -2.26865101 128.78842235 C-2.26359076 124.38023154 -2.26828245 119.97204916 -2.27142334 115.56385803 C-2.27506252 108.16194147 -2.27026473 100.76006481 -2.26074219 93.3581543 C-2.24985371 84.79550479 -2.25338625 76.23295049 -2.264395 67.67030329 C-2.27346443 60.32245757 -2.27475496 52.97464056 -2.26951766 45.62679106 C-2.26639658 41.23647313 -2.26599247 36.8462 -2.27259064 32.45588493 C-2.27835862 28.32973702 -2.27437731 24.20371218 -2.26280212 20.07757759 C-2.26015277 18.56141998 -2.26092532 17.04525205 -2.26532745 15.52909851 C-2.27077349 13.46330417 -2.26396068 11.39790694 -2.25396729 9.33213806 C-2.25321323 8.17495238 -2.25245918 7.0177667 -2.25168228 5.82551479 C-2 3 -2 3 0 0 Z " fill="#082239" transform="translate(185,747)" data-index="10"></path>
<path d="M0 0 C2.95488432 1.30976671 4.71931076 2.62332907 6.8125 5.0625 C12.29696736 10.66194571 19.2438901 14.16519396 26 18 C27.97146487 19.13131753 29.94281176 20.26284067 31.9140625 21.39453125 C33.98371427 22.57667836 36.05402617 23.75767051 38.125 24.9375 C39.61870117 25.78948975 39.61870117 25.78948975 41.14257812 26.65869141 C42.08810547 27.19284668 43.03363281 27.72700195 44.0078125 28.27734375 C44.84973145 28.75421631 45.69165039 29.23108887 46.55908203 29.72241211 C48.99007267 30.99480399 51.43603534 32.0275702 54 33 C50.61025876 44.29913746 43.67496806 54.18691881 36 63 C34.95199219 64.22976563 34.95199219 64.22976563 33.8828125 65.484375 C13.91382206 88.36699038 -12.59763204 104.39811303 -43 108 C-47.66661954 108.30143236 -52.33588043 108.36471311 -57 108 C-58.76834088 106.23165912 -58.61532368 103.62116006 -58.98046875 101.21875 C-59.17213623 99.99575195 -59.36380371 98.77275391 -59.5612793 97.51269531 C-59.66306488 96.85837524 -59.76485046 96.20405518 -59.86972046 95.52990723 C-61.88582057 82.65149418 -64.4649788 70.03406326 -67.66796875 57.390625 C-68.95899351 52.29277955 -70.02370042 47.16657458 -71 42 C-70.12601563 41.98582031 -69.25203125 41.97164062 -68.3515625 41.95703125 C-47.36028635 41.14290419 -28.74935802 34.4688389 -14 19 C-8.76775153 13.05511554 -4.25406638 6.67114955 0 0 Z " fill="#688BA3" transform="translate(747,480)" data-index="11" style="opacity: 1;"></path>
<path d="M0 0 C2.85742188 -0.37231445 2.85742188 -0.37231445 6.46875 -0.36328125 C7.76167969 -0.36263672 9.05460938 -0.36199219 10.38671875 -0.36132812 C11.06138184 -0.35302979 11.73604492 -0.34473145 12.43115234 -0.33618164 C14.49225951 -0.3125886 16.5520734 -0.31561974 18.61328125 -0.32226562 C28.7332276 -0.2667724 28.7332276 -0.2667724 31 2 C31.17488254 4.43744897 31.23177405 6.7593608 31.1953125 9.1953125 C31.1924826 9.90275604 31.18965271 10.61019958 31.18673706 11.33908081 C31.17553137 13.6012251 31.15042679 15.86297515 31.125 18.125 C31.11497067 19.65754637 31.10584474 21.19009894 31.09765625 22.72265625 C31.0772912 26.48204535 31.03814518 30.24058078 31 34 C39.91 34 48.82 34 58 34 C58.020625 37.939375 58.04125 41.87875 58.0625 45.9375 C58.071604 47.18136475 58.08070801 48.42522949 58.09008789 49.70678711 C58.09258545 50.6788208 58.09508301 51.65085449 58.09765625 52.65234375 C58.10289307 53.65257568 58.10812988 54.65280762 58.11352539 55.68334961 C58 58 58 58 57 59 C55.07332493 59.08748207 53.14348139 59.10697334 51.21484375 59.09765625 C49.46010742 59.09282227 49.46010742 59.09282227 47.66992188 59.08789062 C46.43822266 59.07951172 45.20652344 59.07113281 43.9375 59.0625 C42.08415039 59.05573242 42.08415039 59.05573242 40.19335938 59.04882812 C37.12885883 59.03699608 34.06445279 59.02051173 31 59 C31.08463776 66.31115339 31.17961043 73.62209708 31.28752708 80.93294621 C31.33732589 84.32822196 31.38365621 87.72346907 31.421875 91.11889648 C31.46603887 95.02865654 31.52562151 98.93811072 31.5859375 102.84765625 C31.59748871 104.05833267 31.60903992 105.26900909 31.62094116 106.51637268 C31.7223595 114.96176005 31.7223595 114.96176005 34 123 C36.88883775 123.96294592 38.63867202 124.10507913 41.6328125 124.0625 C42.96505859 124.05089844 42.96505859 124.05089844 44.32421875 124.0390625 C45.71060547 124.01972656 45.71060547 124.01972656 47.125 124 C48.9608801 123.97460747 50.79682682 123.95353481 52.6328125 123.9375 C53.44637207 123.92589844 54.25993164 123.91429687 55.09814453 123.90234375 C57 124 57 124 58 125 C58.08726223 126.78071246 58.10699041 128.5648314 58.09765625 130.34765625 C58.09282227 131.96704102 58.09282227 131.96704102 58.08789062 133.61914062 C58.07532227 135.32360352 58.07532227 135.32360352 58.0625 137.0625 C58.05798828 138.20267578 58.05347656 139.34285156 58.04882812 140.51757812 C58.03699747 143.34510351 58.0205141 146.1725264 58 149 C50.27845845 152.48226384 43.75270993 153.22770218 35.3125 153.3125 C34.36955078 153.34150391 33.42660156 153.37050781 32.45507812 153.40039062 C22.20536879 153.49196878 14.39720062 150.33618133 6.9765625 143.26953125 C-2.01184032 132.94885529 -2.29823484 120.35040136 -2.1953125 107.33984375 C-2.19157474 105.9402334 -2.18873138 104.54062039 -2.18673706 103.14100647 C-2.17916061 99.48646613 -2.15956486 95.83208892 -2.1373291 92.1776123 C-2.11674041 88.43679001 -2.10770771 84.69594094 -2.09765625 80.95507812 C-2.07631222 73.63663635 -2.04118024 66.31836197 -2 59 C-8.27 59 -14.54 59 -21 59 C-21.02682614 55.02078906 -21.04675393 51.04175659 -21.0625 47.0625 C-21.07087891 45.92619141 -21.07925781 44.78988281 -21.08789062 43.61914062 C-21.09111328 42.53955078 -21.09433594 41.45996094 -21.09765625 40.34765625 C-21.10289307 39.34742432 -21.10812988 38.34719238 -21.11352539 37.31665039 C-21 35 -21 35 -20 34 C-18.65732587 33.91368126 -17.31025678 33.89293527 -15.96484375 33.90234375 C-15.15595703 33.90556641 -14.34707031 33.90878906 -13.51367188 33.91210938 C-12.66353516 33.92048828 -11.81339844 33.92886719 -10.9375 33.9375 C-10.08349609 33.94201172 -9.22949219 33.94652344 -8.34960938 33.95117188 C-6.23304337 33.96299627 -4.11651315 33.98093231 -2 34 C-2.01047363 33.07662842 -2.02094727 32.15325684 -2.03173828 31.2019043 C-2.0658319 27.77463282 -2.09090446 24.34754167 -2.10986328 20.92016602 C-2.11991821 19.43706417 -2.13356404 17.95398212 -2.15087891 16.47094727 C-2.17515006 14.33865469 -2.18648799 12.20662431 -2.1953125 10.07421875 C-2.20578613 8.79119873 -2.21625977 7.50817871 -2.22705078 6.1862793 C-2 3 -2 3 0 0 Z " fill="#051F37" transform="translate(807,760)" data-index="12"></path>
<path d="M0 0 C8.75731736 5.02423015 12.48542114 12.31071524 15.15771484 21.83642578 C18.85565469 38.46363074 13.81820871 57.00101368 6.625 71.9375 C6.20734375 72.84757812 5.7896875 73.75765625 5.359375 74.6953125 C-0.4456709 86.4054913 -10.54518421 96.71762281 -21.375 103.9375 C-25.54875826 103.61590242 -28.58865326 101.88797398 -32.1640625 99.8046875 C-33.27136719 99.16273438 -34.37867188 98.52078125 -35.51953125 97.859375 C-36.09268066 97.52228516 -36.66583008 97.18519531 -37.25634766 96.83789062 C-38.97009666 95.83008527 -40.69008279 94.83291021 -42.41015625 93.8359375 C-64.2380739 81.11770571 -76.70664819 68.66477883 -83.375 43.9375 C-84.19141468 39.87102686 -84.56137854 35.95849823 -84.625 31.8125 C-84.65078125 30.79929687 -84.6765625 29.78609375 -84.703125 28.7421875 C-84.33382646 25.58556427 -83.48528587 24.25881445 -81.375 21.9375 C-78.61361015 22.2333632 -77.46723283 22.84826662 -75.453125 24.796875 C-71.9887032 30.03258012 -70.72353986 36.01461206 -69.01953125 42.00976562 C-68.73464844 42.96689453 -68.44976563 43.92402344 -68.15625 44.91015625 C-67.90939453 45.77906494 -67.66253906 46.64797363 -67.40820312 47.54321289 C-66.17359019 50.40423583 -64.76113113 51.94988822 -62.375 53.9375 C-58.96971004 55.18588381 -58.96971004 55.18588381 -55.375 54.9375 C-52.54880139 53.30458525 -51.77070864 52.75161172 -50.375 49.9375 C-50.0847782 48.07097551 -49.86500506 46.19309414 -49.6875 44.3125 C-47.9587746 29.82413475 -37.47892983 13.13344752 -26.75 3.4375 C-18.53953575 -2.91780343 -9.6787257 -4.42999077 0 0 Z " fill="#3B5164" transform="translate(830.375,393.0625)" data-index="13"></path>
<path d="M0 0 C-1.40589457 4.50525306 -2.89253997 8.90022871 -4.875 13.1875 C-7.17301039 18.19733875 -8.95369903 23.36446736 -10.75390625 28.5703125 C-11.37072266 30.26800781 -11.37072266 30.26800781 -12 32 C-12.37253906 33.23621094 -12.74507813 34.47242188 -13.12890625 35.74609375 C-15.38375288 39.66736149 -16.74181845 40.23492984 -20.95239258 41.39477539 C-21.75185303 41.57387451 -22.55131348 41.75297363 -23.375 41.9375 C-24.20990967 42.13786865 -25.04481934 42.3382373 -25.9050293 42.54467773 C-46.48812708 47.02507914 -64.86261124 43.63586507 -83 33 C-87.16365078 30.18604941 -91.10857383 27.17771482 -95 24 C-95.75152344 23.39027344 -96.50304687 22.78054687 -97.27734375 22.15234375 C-107.936678 13.17067823 -119.95354718 -0.35990406 -126 -13 C-125 -16 -125 -16 -123.13232422 -17.07348633 C-116.5595258 -19.60878335 -110.02871337 -21.31294503 -103.125 -22.6875 C-102.12597656 -22.89955078 -101.12695312 -23.11160156 -100.09765625 -23.33007812 C-63.06132985 -30.90460423 -29.40425374 -23.57082921 0 0 Z " fill="#3A5063" transform="translate(353,232)" data-index="14"></path>
<path d="M0 0 C0.83055908 0.20133545 1.66111816 0.4026709 2.5168457 0.61010742 C6.79802501 1.71508516 10.31740946 2.94594527 14 5.5 C2.40954546 29.46338702 -19.76829013 52.26467632 -45 61.5 C-52.63792503 64.04239597 -59.65150464 65.01672075 -67.6875 64.9375 C-68.72535645 64.93355225 -69.76321289 64.92960449 -70.83251953 64.92553711 C-80.03851917 64.75531942 -89.64361992 63.67819004 -98 59.5 C-98.86621094 57.38964844 -98.86621094 57.38964844 -99.734375 54.609375 C-100.05857422 53.59504395 -100.38277344 52.58071289 -100.71679688 51.53564453 C-101.05775391 50.45138184 -101.39871094 49.36711914 -101.75 48.25 C-104.3717294 40.10940995 -107.13189518 32.34861334 -110.96875 24.6953125 C-112 22.5 -112 22.5 -112 20.5 C-79.95395964 -7.83311982 -39.84276046 -9.72499383 0 0 Z " fill="#3A5063" transform="translate(784,211.5)" data-index="15" style="opacity: 1;"></path>
<path d="M0 0 C-0.24959473 0.63164063 -0.49918945 1.26328125 -0.75634766 1.9140625 C-3.64121532 9.48701063 -5.6482783 17.08853906 -7.375 25 C-7.52207397 25.67384735 -7.66914795 26.3476947 -7.82067871 27.04196167 C-14.78722764 59.33153336 -17.79806429 92.09329414 -20 125 C-37.16 125 -54.32 125 -72 125 C-71.20983172 114.72781232 -70.01482857 105.03362115 -68 95 C-67.86223145 94.30890137 -67.72446289 93.61780273 -67.58251953 92.90576172 C-61.32339168 62.29030514 -46.71138053 25.64313362 -20 7 C-17.2786629 5.37763729 -14.50512514 3.88534529 -11.6875 2.4375 C-10.99309814 2.07809326 -10.29869629 1.71868652 -9.58325195 1.34838867 C-5.9157246 -0.43568132 -3.88391752 -1.28040651 0 0 Z " fill="#688BA4" transform="translate(350,524)" data-index="16"></path>
<path d="M0 0 C2.14240263 -0.00971061 4.28384799 -0.04072315 6.42602539 -0.07226562 C7.78213947 -0.07879499 9.13826042 -0.08404572 10.49438477 -0.08789062 C12.3543811 -0.10190918 12.3543811 -0.10190918 14.25195312 -0.11621094 C15.23043213 0.00141602 16.20891113 0.11904297 17.21704102 0.24023438 C19.33029321 3.41011267 19.46763804 4.16510042 19.4710083 7.78807068 C19.47664795 8.72038513 19.4822876 9.65269958 19.48809814 10.61326599 C19.48404968 11.63412796 19.48000122 12.65498993 19.47583008 13.70678711 C19.47933472 14.78344635 19.48283936 15.86010559 19.4864502 16.96939087 C19.49527121 20.53760172 19.48941654 24.10561517 19.48266602 27.67382812 C19.48401266 30.14860574 19.48595318 32.62338309 19.48846436 35.09815979 C19.49141621 40.28917963 19.48711633 45.48013072 19.4777832 50.67114258 C19.46639462 57.33061553 19.47294402 63.98985994 19.48492813 70.64933681 C19.49215011 75.76134967 19.48985712 80.87332421 19.48467255 85.98533821 C19.48333668 88.44097983 19.48498155 90.89662491 19.48963165 93.3522625 C19.49470168 96.78303131 19.48697938 100.21353786 19.47583008 103.64428711 C19.47987854 104.66312485 19.483927 105.68196259 19.48809814 106.73167419 C19.47963867 108.13437561 19.47963867 108.13437561 19.4710083 109.56541443 C19.47025425 110.37638297 19.4695002 111.18735151 19.4687233 112.02289486 C19.1901666 114.47700001 18.44272149 116.11322624 17.21704102 118.24023438 C13.12370197 118.31432024 9.03062169 118.36880477 4.93676758 118.4050293 C3.5437948 118.42012795 2.15086964 118.44060882 0.75805664 118.46655273 C-1.24238783 118.50288559 -3.24317725 118.5183463 -5.24389648 118.53320312 C-6.44836426 118.54891357 -7.65283203 118.56462402 -8.89379883 118.58081055 C-9.84722168 118.46842041 -10.80064453 118.35603027 -11.78295898 118.24023438 C-13.91875211 115.03654468 -14.03259134 114.23514334 -14.03019714 110.55831909 C-14.03439163 109.5964267 -14.03858612 108.6345343 -14.04290771 107.64349365 C-14.03447845 106.06305267 -14.03447845 106.06305267 -14.02587891 104.45068359 C-14.02777725 103.33994476 -14.0296756 102.22920593 -14.03163147 101.08480835 C-14.03534336 97.40477494 -14.02463022 93.72493782 -14.01342773 90.04492188 C-14.01223621 87.49569726 -14.01178271 84.9464722 -14.01203918 82.39724731 C-14.01047368 77.05239916 -14.00241997 71.70761947 -13.98876953 66.36279297 C-13.97302814 60.17624226 -13.96777199 53.98975368 -13.96850508 47.80318439 C-13.96911454 41.8577969 -13.9639098 35.91242737 -13.95571327 29.96704483 C-13.95252031 27.43356575 -13.95055774 24.90008483 -13.94981956 22.36660385 C-13.9476636 18.83470237 -13.93893604 15.3028806 -13.92822266 11.77099609 C-13.92867584 10.71332031 -13.92912903 9.65564453 -13.92959595 8.56591797 C-13.92533096 7.60966522 -13.92106598 6.65341248 -13.91667175 5.66818237 C-13.91499591 4.83232542 -13.91332006 3.99646847 -13.91159344 3.13528252 C-13.55366995 -2.1376612 -4.15033588 0.01142425 0 0 Z " fill="#031D35" transform="translate(321.782958984375,793.759765625)" data-index="17"></path>
<path d="M0 0 C8.97603383 5.05921907 13.65016161 10.82699654 16.51953125 20.63671875 C17.58191785 25.04817697 17.78392908 29.28829979 17.75 33.8125 C17.74154053 34.99658447 17.74154053 34.99658447 17.73291016 36.20458984 C17.48849397 47.96802625 13.90827782 55.46672218 5.625 63.75 C-1.83804937 68.87170055 -9.6252736 69.9655731 -18.5625 68.9375 C-26.71772441 66.9604759 -33.63162928 62.60356284 -38.1328125 55.4375 C-43.64876716 44.84686706 -44.21616891 32.18694549 -41.87890625 20.52734375 C-38.69977396 11.14824392 -33.47427113 4.3648831 -24.5625 -0.0625 C-17.68193428 -2.35602191 -6.98127552 -2.28503596 0 0 Z " fill="#FAF6F0" transform="translate(727.5625,819.0625)" data-index="18"></path>
<path d="M0 0 C7.22923271 5.76934882 10.79170357 14.11540043 12.76171875 22.98046875 C13.59673668 35.08822867 13.10970254 47.2209587 6.01171875 57.60546875 C1.18208115 63.0403873 -5.21950243 66.93708873 -12.46875 67.953125 C-20.43201133 68.23708626 -27.0744721 66.4588623 -33.30078125 61.41796875 C-40.53412412 54.55851637 -42.87069231 45.51934759 -43.32421875 35.7734375 C-43.54550578 23.51267693 -42.95747011 12.02981925 -34.6484375 2.23046875 C-26.06709682 -6.16914942 -10.01580387 -6.07069946 0 0 Z " fill="#F9F5EF" transform="translate(443.98828125,821.39453125)" data-index="19"></path>
<path d="M0 0 C4.35590259 1.01904143 8.62015556 2.26957264 12.90625 3.546875 C28.43317774 8.04786628 43.97669947 11.57816896 59.96875 13.984375 C60.99500488 14.13922363 62.02125977 14.29407227 63.07861328 14.45361328 C66.51700606 14.94435454 69.95806172 15.38025129 73.40625 15.796875 C74.11756073 15.88514557 74.82887146 15.97341614 75.56173706 16.06436157 C90.50126884 17.86874068 105.36765132 18.13774563 120.40454102 18.11254883 C124.30709225 18.10940454 128.20887067 18.13288962 132.11132812 18.15820312 C171.15385602 18.25564142 211.27745305 13.4184506 248.33203125 0.6796875 C251.31116328 -0.17581928 253.3477128 -0.66038139 256.40625 -0.203125 C258.64453125 1.328125 258.64453125 1.328125 260.71875 3.296875 C261.76482422 4.27140625 261.76482422 4.27140625 262.83203125 5.265625 C263.35152344 5.7709375 263.87101562 6.27625 264.40625 6.796875 C263.40625 9.796875 263.40625 9.796875 260.984375 11.0078125 C218.91670497 25.72162197 173.67862705 29.17924722 129.4543457 29.16748047 C126.23341174 29.1673189 123.01305257 29.18109118 119.79223633 29.20849609 C79.16844804 29.54817897 24.65662486 29.03106401 -11.59375 8.796875 C-10.66100891 7.66792624 -9.72234878 6.54386624 -8.78125 5.421875 C-8.25917969 4.79539062 -7.73710937 4.16890625 -7.19921875 3.5234375 C-4.87974958 1.02902053 -3.48663484 -0.27304972 0 0 Z " fill="#3A5063" transform="translate(386.59375,504.203125)" data-index="20" style="opacity: 1;"></path>
<path d="M0 0 C9.838125 -0.0928125 9.838125 -0.0928125 19.875 -0.1875 C21.92444824 -0.21481201 23.97389648 -0.24212402 26.08544922 -0.27026367 C27.74185602 -0.27903986 29.39826938 -0.2866811 31.0546875 -0.29296875 C31.8887915 -0.30831665 32.72289551 -0.32366455 33.58227539 -0.33947754 C40.91187642 -0.34267452 48.06597365 0.69023458 53.9375 5.3125 C59.47753593 12.5313347 60.08525831 19.1150815 59 28 C57.06068949 33.20341749 53.68680777 37.027878 49 40 C43.63504078 42.30487657 38.73692217 42.2603288 33.0078125 42.1953125 C31.58890213 42.19106766 31.58890213 42.19106766 30.1413269 42.18673706 C27.13575306 42.17558932 24.13048298 42.15049465 21.125 42.125 C19.08073349 42.11496321 17.03646228 42.10583859 14.9921875 42.09765625 C9.99458197 42.07737376 4.99762892 42.03821466 0 42 C0 28.14 0 14.28 0 0 Z " fill="#F9F6EF" transform="translate(543,842)" data-index="21"></path>
<path d="M0 0 C0.83055908 0.20133545 1.66111816 0.4026709 2.5168457 0.61010742 C6.79802501 1.71508516 10.31740946 2.94594527 14 5.5 C13.67 6.49 13.34 7.48 13 8.5 C12.24082275 8.43941406 11.48164551 8.37882813 10.69946289 8.31640625 C-37.26259063 4.49547422 -37.26259063 4.49547422 -79.375 25.5625 C-85.05681012 30.42237501 -90.32765921 35.69288695 -95.50732422 41.08032227 C-96.97011605 42.58807436 -98.481049 44.0488404 -100 45.5 C-100.66 45.5 -101.32 45.5 -102 45.5 C-103.67257264 41.71091124 -105.33705115 37.91832115 -107 34.125 C-107.47695313 33.04476562 -107.95390625 31.96453125 -108.4453125 30.8515625 C-108.89648438 29.8203125 -109.34765625 28.7890625 -109.8125 27.7265625 C-110.23144531 26.77346191 -110.65039062 25.82036133 -111.08203125 24.83837891 C-112 22.5 -112 22.5 -112 20.5 C-79.95395964 -7.83311982 -39.84276046 -9.72499383 0 0 Z " fill="#688CA5" transform="translate(784,211.5)" data-index="22" style="opacity: 1;"></path>
<path d="M0 0 C5.53267002 -0.09225388 11.06263022 -0.17176099 16.59545898 -0.21972656 C18.47413213 -0.2397382 20.3527438 -0.26695637 22.23120117 -0.30175781 C24.94465373 -0.3507397 27.65727696 -0.37307329 30.37109375 -0.390625 C31.61384315 -0.42159271 31.61384315 -0.42159271 32.88169861 -0.45318604 C38.95315397 -0.45547852 43.73636942 0.93594657 49 4 C53.54095465 8.68285949 53.3125 13.98893889 53.3125 20.2277832 C53.19554606 25.73192817 52.59652228 29.77496979 49 34 C43.37810472 38.03336078 37.98629702 38.55318043 31.25 38.390625 C29.90192261 38.38213531 29.90192261 38.38213531 28.52661133 38.37347412 C25.68384292 38.35125919 22.84238105 38.30109249 20 38.25 C18.06121625 38.22991569 16.12241254 38.21166832 14.18359375 38.1953125 C9.45483295 38.15486117 4.72886167 38.07654632 0 38 C0 25.46 0 12.92 0 0 Z " fill="#FAF6F0" transform="translate(543,776)" data-index="23"></path>
<path d="M0 0 C-1.93854194 6.21214575 -4.2954058 12.08638331 -7 18 C-8.01197442 20.32839878 -9.00590896 22.66388606 -10 25 C-10.33 24.34 -10.66 23.68 -11 23 C-12.33201431 22.33070178 -13.66550214 21.6643325 -15 21 C-16.51708984 19.64648438 -16.51708984 19.64648438 -17.9609375 18.09375 C-18.50766113 17.51947266 -19.05438477 16.94519531 -19.61767578 16.35351562 C-20.19759277 15.74185547 -20.77750977 15.13019531 -21.375 14.5 C-37.04718476 -1.55584183 -57.11814419 -13.66479244 -80.1328125 -14.16796875 C-82.13016468 -14.18269207 -84.12759396 -14.18876759 -86.125 -14.1875 C-87.17800293 -14.18814453 -88.23100586 -14.18878906 -89.31591797 -14.18945312 C-97.91442522 -14.13255219 -106.35038102 -13.45274905 -114.8828125 -12.4375 C-118.27202834 -12.0404111 -121.5836607 -11.91268142 -125 -12 C-125 -13.32 -125 -14.64 -125 -16 C-117.83508663 -19.15947973 -110.79395065 -21.16058345 -103.125 -22.6875 C-102.12597656 -22.89955078 -101.12695312 -23.11160156 -100.09765625 -23.33007812 C-63.06132985 -30.90460423 -29.40425374 -23.57082921 0 0 Z " fill="#688CA5" transform="translate(353,232)" data-index="24"></path>
<path d="M0 0 C2.60546875 1.79296875 2.60546875 1.79296875 5.1875 4.1875 C15.7073873 13.32584259 26.2751819 15.75890059 39.85107422 15.17480469 C50.02726365 14.34702104 58.26698615 9.24144308 65 1.78515625 C67 0 67 0 69 -0.34765625 C72.65436453 0.17337619 74.58941183 0.66126476 77.5 3.0625 C79.43781908 6.85739569 80.10692228 9.89832225 79 14 C75.18913996 20.30803852 69.25247398 24.35090804 63 28 C62.36320313 28.38027344 61.72640625 28.76054687 61.0703125 29.15234375 C48.99407495 35.79176896 33.24368267 37.37246082 19.8671875 34.12109375 C8.68170831 30.64142209 -3.45313547 25.0260284 -10.875 15.625 C-12.36662629 12.14453867 -12.46917354 9.75338831 -12 6 C-8.60488306 0.79415403 -6.21046962 -0.62938825 0 0 Z " fill="#071E35" transform="translate(479,429)" data-index="25" style="opacity: 1;"></path>
<path d="M0 0 C0.95815613 -0.00861557 1.91631226 -0.01723114 2.90350342 -0.02610779 C6.07209252 -0.04881806 9.23980078 -0.04201918 12.40844727 -0.03295898 C14.61035933 -0.03819252 16.81226915 -0.044468 19.01417542 -0.05174255 C23.63016301 -0.0621563 28.24584253 -0.05757145 32.86181641 -0.04296875 C38.7782222 -0.02578468 44.69365652 -0.04926719 50.60995388 -0.08445835 C55.15760234 -0.10641615 59.70501781 -0.10499464 64.25270271 -0.09669304 C66.43400195 -0.09587254 68.61531812 -0.10275466 70.79656792 -0.11746407 C73.84675714 -0.13487834 76.8951939 -0.1203923 79.9453125 -0.09765625 C81.29750633 -0.11519455 81.29750633 -0.11519455 82.67701721 -0.13308716 C87.102659 -0.06594616 88.98772913 0.12331176 92.63685608 2.84632874 C94.53735352 5.53344727 94.53735352 5.53344727 94.53735352 9.15844727 C93.19326749 13.69473759 93.19326749 13.69473759 90.53735352 15.53344727 C86.5232888 16.87146884 82.65020049 16.69764271 78.46362305 16.71044922 C77.07049896 16.72030602 77.07049896 16.72030602 75.64923096 16.73036194 C72.57287518 16.75008847 69.49656815 16.76175483 66.42016602 16.77172852 C65.37003201 16.77580404 64.31989799 16.77987957 63.23794174 16.7840786 C57.68198595 16.80493448 52.12605483 16.81923949 46.57006836 16.82861328 C40.82757492 16.83968937 35.08546774 16.87410466 29.34311104 16.91378498 C24.93019888 16.93990577 20.5173795 16.94830099 16.10439682 16.95189476 C13.98727682 16.9567708 11.87016123 16.96841359 9.75311661 16.98693275 C6.79172182 17.01123208 3.83133662 17.01037614 0.86987305 17.00341797 C-0.44259903 17.02263306 -0.44259903 17.02263306 -1.78158569 17.04223633 C-5.88413509 17.00707963 -7.94942303 16.8545303 -11.50662231 14.6290741 C-13.61636647 12.36875619 -14.12597694 11.57022338 -14.02514648 8.53344727 C-14.02643555 7.87344727 -14.02772461 7.21344727 -14.02905273 6.53344727 C-12.02171935 -0.55451613 -6.12929744 -0.04427187 0 0 Z " fill="#0A2237" transform="translate(472.462646484375,583.466552734375)" data-index="26" style="opacity: 1;"></path>
<path d="M0 0 C17.16 0 34.32 0 52 0 C52 9.9 52 19.8 52 30 C45.53933236 30.11486766 39.08221361 30.21438434 32.62133789 30.2746582 C30.4242756 30.29978509 28.22729676 30.33389246 26.03051758 30.37719727 C22.87039595 30.43792762 19.71138043 30.46622833 16.55078125 30.48828125 C15.57039383 30.51408768 14.59000641 30.5398941 13.57991028 30.56648254 C8.90259162 30.56840135 6.72800659 30.55078275 2.90307617 27.65698242 C-3.24274923 19.07647981 0 12.6457176 0 0 Z " fill="#3A5063" transform="translate(277,667)" data-index="27"></path>
<path d="M0 0 C5.36522303 4.52361942 5.76051992 12.21176763 6.328125 18.8203125 C6.84562375 37.70901683 0.27877606 54.38020669 -11.88671875 68.79296875 C-13.81018132 70.80176053 -15.71913003 72.41935196 -18 74 C-21.19532167 72.60555041 -23.14749258 70.99120872 -25.5 68.4375 C-29.78754232 64.00406777 -34.56900802 60.4673209 -39.55859375 56.8828125 C-42 55 -42 55 -43 53 C-41.69289063 52.12601563 -41.69289063 52.12601563 -40.359375 51.234375 C-23.53935175 39.76034275 -10.21596779 25.83509086 -2.9375 6.48828125 C-2.0876414 4.23261488 -1.11868738 2.13249781 0 0 Z " fill="#3B5164" transform="translate(667,123)" data-index="28"></path>
<path d="M0 0 C0.66 0 1.32 0 2 0 C2.268125 0.85980469 2.53625 1.71960938 2.8125 2.60546875 C9.91334545 24.02479532 23.79597897 40.12735387 42 53 C42.99 53.495 42.99 53.495 44 54 C44 54.66 44 55.32 44 56 C42.07251954 57.57098721 40.13560099 59.04236313 38.125 60.5 C31.8334273 65.17859339 26.38525892 70.28651988 21 76 C8.21043631 65.87492875 -0.37300981 51.92800461 -3.4140625 35.8046875 C-3.66191179 33.5373255 -3.85057261 31.2761614 -4 29 C-4.06574219 28.04222656 -4.13148438 27.08445313 -4.19921875 26.09765625 C-4.52959205 16.88138037 -2.52328958 8.77519011 0 0 Z " fill="#3B5164" transform="translate(356,122)" data-index="29"></path>
<path d="M0 0 C1.10095505 -0.00810448 1.10095505 -0.00810448 2.22415161 -0.01637268 C4.64073506 -0.02883955 7.05612229 -0.01238377 9.47265625 0.00561523 C11.15747134 0.0054602 12.84228678 0.00397044 14.52709961 0.00120544 C18.05436004 -0.00017763 21.58121339 0.01236383 25.10839844 0.03515625 C29.62449155 0.0635408 34.13990849 0.06080243 38.65605164 0.04806614 C42.13396964 0.04110353 45.611732 0.04890486 49.08963013 0.06132317 C50.75456139 0.06583202 52.41950939 0.06617941 54.08444214 0.06225777 C56.41341267 0.05933978 58.74145892 0.07587947 61.0703125 0.09765625 C61.75513702 0.0931546 62.43996155 0.08865295 63.14553833 0.08401489 C67.42493503 0.15033364 70.12328353 0.89757279 73.53515625 3.50170898 C75.08102501 6.5934465 74.82875146 9.09600451 74.53515625 12.50170898 C72.99328613 14.69592285 72.99328613 14.69592285 70.53515625 16.50170898 C67.85049783 16.89659264 65.57514608 17.04953676 62.89257812 17.01928711 C62.12788712 17.02629639 61.36319611 17.03330566 60.57533264 17.04052734 C58.05115291 17.05811249 55.5280971 17.04648347 53.00390625 17.03295898 C51.248004 17.03565377 49.4921032 17.03953607 47.73620605 17.04455566 C44.05755393 17.05045139 40.37929051 17.04188554 36.70068359 17.02319336 C31.98593964 17.00040355 27.27210647 17.01352626 22.55739594 17.03748322 C18.93195741 17.05193931 15.30673471 17.04733612 11.68128967 17.03697205 C9.94295646 17.03430423 8.20460364 17.03757648 6.46629333 17.04689026 C4.03624592 17.05705305 1.60767206 17.0415603 -0.82226562 17.01928711 C-1.54030869 17.02738403 -2.25835175 17.03548096 -2.99815369 17.04382324 C-6.42133337 16.98571223 -8.1733997 16.72931998 -10.90710449 14.59436035 C-12.58728017 12.33722913 -13.03277516 11.28259263 -13.02734375 8.50170898 C-13.04925781 7.84170898 -13.07117188 7.18170898 -13.09375 6.50170898 C-11.19580904 0.46602096 -5.47592007 -0.07730597 0 0 Z " fill="#061E35" transform="translate(471.46484375,615.498291015625)" data-index="30"></path>
<path d="M0 0 C5.03508669 4.51152679 7.69939065 8.99390649 8.375 15.75 C8.20757962 21.28533636 6.26176081 26.44699875 2.57421875 30.609375 C-2.74322434 35.28103043 -7.52570783 36.48344564 -14.4375 36.30859375 C-19.36017408 35.71577172 -23.2084242 33.96092874 -26.5703125 30.28125 C-31.15017962 24.10497206 -31.57597238 18.56371278 -31 11 C-28.97848481 4.6976291 -24.19641913 0.80310823 -18.5625 -2.375 C-12.04887029 -3.96369017 -5.80392583 -3.41760095 0 0 Z " fill="#061E36" transform="translate(336,741)" data-index="31"></path>
<path d="M0 0 C4.87995132 2.26569169 7.63239735 5.17373306 10 10 C10.9021605 15.64610559 10.24179585 20.19319926 7 25 C2.89566074 28.88832141 -0.72747395 30.69985505 -6.3125 31.4375 C-11.06382914 30.87378298 -14.41349511 29.15768365 -18 26 C-21.96177557 20.65114969 -21.78305863 15.42108079 -21 9 C-16.63583702 -0.21323295 -9.35208363 -1.1293561 0 0 Z " fill="#071E35" transform="translate(440,383)" data-index="32"></path>
<path d="M0 0 C4.85901474 2.29698879 7.66907123 5.15884024 10 10 C10.80165291 15.0226009 10.59932381 18.80135239 8.3125 23.375 C4.45186699 27.75734017 1.93940078 30.1092711 -3.9375 30.9375 C-8.4625328 31.20604794 -11.2349774 30.71431862 -15 28 C-20.12047712 22.76820816 -21.46537872 19.0612162 -21.41796875 11.8359375 C-20.75891782 7.36424614 -18.48939844 4.74510015 -15 2 C-10.32088501 -0.90731622 -5.33360719 -0.61928676 0 0 Z " fill="#061D34" transform="translate(596,383)" data-index="33"></path>
<path d="M0 0 C3.14847243 1.300456 4.61740061 2.5514352 6.8125 5.125 C8.47940009 9.16065285 8.69730573 12.69489505 8 17 C5.9949912 20.8026029 4.57313738 22.61790841 1 25 C-3.27179687 25.77669034 -7.33323116 25.94859196 -11.17578125 23.76171875 C-15.42229717 20.2185595 -16.77901197 17.89418315 -17.4375 12.25 C-17.41253207 7.74744944 -15.51128348 5.53249625 -12.5078125 2.34765625 C-8.86691579 -0.90651309 -4.63458138 -0.44177119 0 0 Z " fill="#6A8DA6" transform="translate(517,78)" data-index="34"></path>
<path d="M0 0 C2.85742188 -0.37231445 2.85742188 -0.37231445 6.46875 -0.36328125 C7.76167969 -0.36263672 9.05460938 -0.36199219 10.38671875 -0.36132812 C11.06138184 -0.35302979 11.73604492 -0.34473145 12.43115234 -0.33618164 C14.49225951 -0.3125886 16.5520734 -0.31561974 18.61328125 -0.32226562 C28.7332276 -0.2667724 28.7332276 -0.2667724 31 2 C31.17488254 4.43744897 31.23177405 6.7593608 31.1953125 9.1953125 C31.1924826 9.90275604 31.18965271 10.61019958 31.18673706 11.33908081 C31.17553137 13.6012251 31.15042679 15.86297515 31.125 18.125 C31.11497067 19.65754637 31.10584474 21.19009894 31.09765625 22.72265625 C31.07559086 26.48192301 31.04105896 30.24089464 31 34 C30.01 33.67 29.02 33.34 28 33 C28 23.1 28 13.2 28 3 C19.09 3 10.18 3 1 3 C1 13.23 1 23.46 1 34 C-0.485 34.495 -0.485 34.495 -2 35 C-2.04944705 30.49765627 -2.08574161 25.9954707 -2.10986328 21.49291992 C-2.11991935 19.96131639 -2.133566 18.42973205 -2.15087891 16.89819336 C-2.17514498 14.69640364 -2.18648688 12.49486781 -2.1953125 10.29296875 C-2.20563507 9.60849167 -2.21595764 8.92401459 -2.22659302 8.21879578 C-2.22745382 4.56938339 -2.08567666 3.12851498 0 0 Z " fill="#233444" transform="translate(807,760)" data-index="35"></path>
<path d="M0 0 C2.84699986 2.38780633 2.98018838 3.77810982 3.3125 7.5 C3.02996591 10.66438177 2.78278114 12.42487168 1 15 C-1.91055201 16.455276 -3.78091798 16.45067148 -7 16 C-9.48564959 13.45061581 -10.90586034 11.56212997 -11.125 7.92578125 C-10.86616729 5.00852089 -10.28025391 2.51379883 -8.875 -0.0625 C-5.70269664 -1.64865168 -3.3270713 -0.89117981 0 0 Z " fill="#F3F1EC" transform="translate(598,301)" data-index="36"></path>
<path d="M0 0 C2.375 1.9375 2.375 1.9375 4 5 C4.2268385 8.9249935 4.11138424 12.58148108 1.62890625 15.75 C-0.91432587 17.70164095 -2.90272959 17.3871588 -6 17 C-7.8125 16 -7.8125 16 -9 14 C-10.53571429 7.19897959 -10.53571429 7.19897959 -8.6875 3.0625 C-6.08705785 -0.11581819 -4.02174933 -0.57453562 0 0 Z " fill="#F4F2EE" transform="translate(434,300)" data-index="37"></path>
<path d="M0 0 C0.33 0 0.66 0 1 0 C1 2.64 1 5.28 1 8 C1.66 8 2.32 8 3 8 C2.67 10.64 2.34 13.28 2 16 C1.34 16 0.68 16 0 16 C-0.33 16.99 -0.66 17.98 -1 19 C-2.2887476 16.4225048 -1.71668849 15.75433225 -1 13 C-0.7801777 10.75292759 -0.59516013 8.50228762 -0.4375 6.25 C-0.35371094 5.07953125 -0.26992188 3.9090625 -0.18359375 2.703125 C-0.12300781 1.81109375 -0.06242187 0.9190625 0 0 Z " fill="#E0E1E0" transform="translate(456,307)" data-index="38"></path>
<path d="M0 0 C0.66 1.32 1.32 2.64 2 4 C0.68 5.65 -0.64 7.3 -2 9 C-2.66 8.67 -3.32 8.34 -4 8 C-3.67 6.02 -3.34 4.04 -3 2 C-2.67 2.66 -2.34 3.32 -2 4 C-1.34 4 -0.68 4 0 4 C0 2.68 0 1.36 0 0 Z " fill="#DBE0E0" transform="translate(335,386)" data-index="39"></path>
</svg>